HIERARCHY
ROOT Hips
{
	OFFSET 0.000000 89.005402 0.000000
	CHANNELS 6 Xposition Yposition Zposition Xrotation Yrotation Zrotation
	JOINT Spine
	{
		OFFSET 0.116900 10.681000 0.373400
		CHANNELS 3 Xrotation Yrotation Zrotation
		JOINT Spine1
		{
			OFFSET 0.000000 13.840401 0.053500
			CHANNELS 3 Xrotation Yrotation Zrotation
			JOINT Spine2
			{
				OFFSET 0.000000 14.712700 -0.366200
				CHANNELS 3 Xrotation Yrotation Zrotation
				JOINT Neck
				{
					OFFSET 0.000000 35.415497 -3.314200
					CHANNELS 3 Xrotation Yrotation Zrotation
					JOINT Head
					{
						OFFSET 0.000000 16.899200 1.218300
						CHANNELS 3 Xrotation Yrotation Zrotation
						JOINT HeadTop_End
						{
							OFFSET 0.000000 22.206207 2.192500
							CHANNELS 3 Xrotation Yrotation Zrotation
							End Site
							{
								OFFSET 0.000000 22.314178 0.000000
							}
						}
					}
				}
				JOINT LeftShoulder
				{
					OFFSET 12.896400 26.716293 -4.548400
					CHANNELS 3 Xrotation Yrotation Zrotation
					JOINT LeftArm
					{
						OFFSET 19.027000 -4.857010 -1.718400
						CHANNELS 3 Xrotation Yrotation Zrotation
						JOINT LeftForeArm
						{
							OFFSET 24.179897 0.000000 0.000000
							CHANNELS 3 Xrotation Yrotation Zrotation
							JOINT LeftHand
							{
								OFFSET 27.156403 0.000000 0.000000
								CHANNELS 3 Xrotation Yrotation Zrotation
								JOINT LeftHandIndex1
								{
									OFFSET 16.441200 0.000000 0.000000
									CHANNELS 3 Xrotation Yrotation Zrotation
									JOINT LeftHandIndex2
									{
										OFFSET 4.821899 0.000000 0.000000
										CHANNELS 3 Xrotation Yrotation Zrotation
										JOINT LeftHandIndex3
										{
											OFFSET 6.386497 0.000000 0.000000
											CHANNELS 3 Xrotation Yrotation Zrotation
											JOINT LeftHandIndex4
											{
												OFFSET 5.188988 0.000000 0.000000
												CHANNELS 3 Xrotation Yrotation Zrotation
												End Site
												{
													OFFSET -0.178703 5.185913 0.000177
												}
											}
										}
									}
								}
								JOINT LeftHandThumb1
								{
									OFFSET 6.534897 -5.032593 5.900300
									CHANNELS 3 Xrotation Yrotation Zrotation
									JOINT LeftHandThumb2
									{
										OFFSET 3.818176 -2.204422 2.204423
										CHANNELS 3 Xrotation Yrotation Zrotation
										JOINT LeftHandThumb3
										{
											OFFSET 3.252098 -1.877594 1.877601
											CHANNELS 3 Xrotation Yrotation Zrotation
											JOINT LeftHandThumb4
											{
												OFFSET 5.251778 -3.032120 3.032117
												CHANNELS 3 Xrotation Yrotation Zrotation
												End Site
												{
													OFFSET 0.000023 6.780014 0.000000
												}
											}
										}
									}
								}
							}
						}
					}
				}
				JOINT RightShoulder
				{
					OFFSET -12.896300 26.716293 -4.548400
					CHANNELS 3 Xrotation Yrotation Zrotation
					JOINT RightArm
					{
						OFFSET -19.027000 -4.857010 -1.718400
						CHANNELS 3 Xrotation Yrotation Zrotation
						JOINT RightForeArm
						{
							OFFSET -24.179897 0.000000 0.000000
							CHANNELS 3 Xrotation Yrotation Zrotation
							JOINT RightHand
							{
								OFFSET -27.156403 0.000000 0.000000
								CHANNELS 3 Xrotation Yrotation Zrotation
								JOINT RightHandThumb1
								{
									OFFSET -6.591202 -4.852203 5.988100
									CHANNELS 3 Xrotation Yrotation Zrotation
									JOINT RightHandThumb2
									{
										OFFSET -3.818176 -2.204422 2.204423
										CHANNELS 3 Xrotation Yrotation Zrotation
										JOINT RightHandThumb3
										{
											OFFSET -3.252098 -1.877594 1.877601
											CHANNELS 3 Xrotation Yrotation Zrotation
											JOINT RightHandThumb4
											{
												OFFSET -5.251778 -3.032120 3.032117
												CHANNELS 3 Xrotation Yrotation Zrotation
												End Site
												{
													OFFSET -0.000023 6.780014 0.000000
												}
											}
										}
									}
								}
								JOINT RightHandIndex1
								{
									OFFSET -16.029404 0.000000 0.000000
									CHANNELS 3 Xrotation Yrotation Zrotation
									JOINT RightHandIndex2
									{
										OFFSET -5.213303 0.000000 0.000000
										CHANNELS 3 Xrotation Yrotation Zrotation
										JOINT RightHandIndex3
										{
											OFFSET -6.386528 0.000000 0.000000
											CHANNELS 3 Xrotation Yrotation Zrotation
											JOINT RightHandIndex4
											{
												OFFSET -5.189026 0.000000 0.000000
												CHANNELS 3 Xrotation Yrotation Zrotation
												End Site
												{
													OFFSET 0.236702 5.183624 0.001972
												}
											}
										}
									}
								}
							}
						}
					}
				}
			}
		}
	}
	JOINT LeftUpLeg
	{
		OFFSET 14.073000 -7.904099 -1.463000
		CHANNELS 3 Xrotation Yrotation Zrotation
		JOINT LeftLeg
		{
			OFFSET -0.109806 -34.073280 4.093200
			CHANNELS 3 Xrotation Yrotation Zrotation
			JOINT LeftFoot
			{
				OFFSET 0.109806 -29.899420 -6.319000
				CHANNELS 3 Xrotation Yrotation Zrotation
				JOINT LeftToeBase
				{
					OFFSET 1.551100 -14.988700 20.535801
					CHANNELS 3 Xrotation Yrotation Zrotation
					JOINT LeftToe_End
					{
						OFFSET 0.221200 0.570800 13.248301
						CHANNELS 3 Xrotation Yrotation Zrotation
						End Site
						{
							OFFSET 0.000000 13.262435 0.000000
						}
					}
				}
			}
		}
	}
	JOINT RightUpLeg
	{
		OFFSET -13.839300 -7.904099 -1.463000
		CHANNELS 3 Xrotation Yrotation Zrotation
		JOINT RightLeg
		{
			OFFSET 0.109694 -34.073219 4.093300
			CHANNELS 3 Xrotation Yrotation Zrotation
			JOINT RightFoot
			{
				OFFSET -0.109694 -29.899384 -6.319200
				CHANNELS 3 Xrotation Yrotation Zrotation
				JOINT RightToeBase
				{
					OFFSET -1.551100 -14.988700 20.535801
					CHANNELS 3 Xrotation Yrotation Zrotation
					JOINT RightToe_End
					{
						OFFSET -0.221200 0.570900 13.248299
						CHANNELS 3 Xrotation Yrotation Zrotation
						End Site
						{
							OFFSET 0.000000 13.262440 0.000000
						}
					}
				}
			}
		}
	}
}
MOTION
Frames: 4
Frame Time: 0.033333
-7.803190 80.959801 10.037119 -7.637960 1.604735 -3.027028 23.838752 -0.749776 -8.998253 -1.925874 0.233926 -0.094236 -1.928777 0.200955 -0.109720 4.669590 -4.606533 2.037109 6.024997 -24.952134 16.700712 0.000000 0.000001 0.000001 0.831636 -1.829346 4.573431 -21.487154 -63.407371 -51.004052 -0.000002 -0.019792 -0.000017 15.970157 8.142509 4.227032 -0.020748 -4.801464 -0.537790 0.010890 0.387870 -3.215740 0.000001 -0.005094 0.042262 -0.000001 0.000002 -0.000003 -1.540028 3.690174 6.142352 3.939047 7.948718 0.746799 -0.579473 1.574992 2.538720 -0.000002 -0.000000 -0.000001 5.261483 13.633755 6.402165 15.226218 67.667804 36.260839 -0.000003 34.971767 0.000011 6.582423 -3.663464 -1.762796 -1.849252 -3.581787 -6.586132 4.637197 -8.634114 -0.225386 -1.273765 0.137313 -2.094870 0.000000 0.000000 0.000000 -0.828447 2.768810 13.349224 0.156528 -1.469972 12.155553 0.174149 -1.549478 12.824432 0.000000 -0.000001 -0.000000 -23.958128 -1.150431 25.134002 39.504352 -9.290228 -0.395616 -2.338628 -3.221294 -19.952168 -5.236074 -0.261893 3.129377 -0.000000 0.000000 -0.000000 -26.956875 -4.999663 -9.809630 61.291140 2.737502 -1.087255 -1.532727 -0.927872 4.868105 -21.671205 -1.672071 4.235719 -0.000000 -0.000000 -0.000000 
-9.875964 82.199356 10.444442 -5.302601 1.280566 -5.935082 18.232582 -0.303890 -7.825740 -0.889572 0.131004 0.533216 -0.892298 0.137372 0.527051 5.824499 -5.973998 1.782897 10.280085 -32.364264 19.292486 -0.000000 0.000001 -0.000000 0.762096 -1.537451 4.761334 -14.208841 -51.433462 -39.723035 -0.000002 -0.080893 0.000003 16.139455 15.254551 -0.403690 -0.027991 -4.790982 -0.624367 0.011482 0.398282 -3.302096 0.000006 0.005308 -0.044104 -0.000001 0.000001 -0.000002 -1.540030 3.690178 6.142354 3.939050 7.948722 0.746803 -0.579475 1.574994 2.538724 -0.000000 0.000001 0.000004 5.171551 13.338956 6.447304 14.251462 64.039082 36.663854 -0.000011 25.767807 0.000010 4.788486 0.577152 0.854352 -1.849252 -3.581787 -6.586134 4.637199 -8.634116 -0.225387 -1.273766 0.137311 -2.094869 -0.000000 0.000000 0.000001 -0.752991 2.968027 11.856096 0.136412 -1.373281 11.344827 0.135924 -1.370874 11.324542 0.000000 -0.000000 -0.000000 -21.813683 2.258578 35.135067 26.295853 -3.810568 -0.519578 2.502570 1.783541 -29.044249 0.000002 0.000001 0.000003 0.000000 0.000001 0.000000 -22.775703 -5.103182 -8.886743 48.744075 8.528119 -2.863128 -3.263327 -0.894663 6.574283 -13.315823 -1.183214 5.205220 -0.000000 0.000000 0.000000 
-11.821012 82.143944 10.827690 -4.461066 1.319515 -7.449452 14.899387 -0.545192 -6.575640 -0.173819 0.018620 0.890904 -0.174668 0.040899 0.890029 6.245441 -6.837155 0.734139 15.735916 -37.108114 21.203282 0.000000 -0.000001 0.000001 0.960499 -2.413571 4.420355 -6.483236 -42.169772 -27.567922 -0.000002 -0.172068 -0.000003 14.531588 20.762670 -4.997842 -0.027918 -4.791102 -0.623434 0.011467 0.398158 -3.301195 0.000008 0.005218 -0.043183 -0.000000 0.000001 -0.000002 -1.540033 3.690174 6.142353 3.939047 7.948718 0.746799 -0.579476 1.574992 2.538721 0.000002 -0.000000 -0.000002 5.206132 13.490095 6.171714 11.886253 60.568308 36.791545 -0.000007 17.105094 0.000006 6.531605 4.745701 5.347635 -1.849251 -3.581788 -6.586133 4.637199 -8.634116 -0.225390 -1.273765 0.137314 -2.094871 -0.000001 0.000002 0.000000 -0.615255 3.303906 9.340899 0.118906 -1.282954 10.589431 0.082229 -1.068414 8.802604 -0.000000 -0.000000 -0.000000 -23.043045 4.191231 39.267635 25.277956 6.570898 -0.395948 -4.327928 2.760946 -20.762083 -0.000001 -0.000003 0.000002 -0.000001 -0.000001 -0.000000 -17.344603 -4.569489 -8.391258 37.903370 8.932233 -7.038356 -6.150049 8.037308 14.332969 -11.462201 -0.400996 2.150626 0.000000 0.000001 -0.000000 
-13.099763 80.890976 10.904907 -4.336434 1.854594 -8.186393 14.196094 -1.216065 -6.311079 0.071511 -0.103494 1.391968 0.073557 -0.066886 1.394077 5.944476 -7.504617 0.146189 19.003207 -40.387185 22.926380 0.000001 -0.000001 -0.000000 0.794843 -1.767208 5.113201 -0.891652 -37.399859 -19.224215 0.000003 -0.249549 -0.000000 15.225202 25.053938 -8.899021 -0.021597 -4.800272 -0.548043 0.010954 0.389084 -3.225884 -0.000006 -0.003877 0.032131 -0.000001 0.000003 0.000001 -1.540026 3.690173 6.142351 3.939050 7.948721 0.746799 -0.579476 1.574993 2.538721 0.000001 -0.000000 -0.000000 5.314010 13.993305 5.081353 9.694347 58.018714 36.159069 0.000001 10.930725 0.000003 10.480131 7.772580 8.191416 -1.849252 -3.581788 -6.586133 4.637198 -8.634115 -0.225387 -1.273767 0.137312 -2.094871 -0.000000 -0.000001 -0.000001 -0.410568 3.740602 6.008530 0.102154 -1.189979 9.813862 0.031752 -0.665093 5.465947 -0.000000 -0.000000 -0.000000 -26.967967 2.371889 41.543383 27.574952 5.564383 -0.486715 -1.396199 6.756649 -17.324543 0.000003 -0.000005 -0.000001 0.000002 -0.000001 -0.000000 -12.738535 -4.058549 -7.453223 31.856791 8.713416 -9.170180 -13.025245 12.486312 19.709969 -7.649520 0.002067 -0.017492 -0.000000 0.000002 0.000000 
